<svg width="0" height="0" class="hidden">
  <symbol version="1.2" baseProfile="tiny" xmlns="http://www.w3.org/2000/svg" viewBox="0 0 24 24" id="arrow-up">
    <path d="M12 3.172l-6.414 6.414c-.781.781-.781 2.047 0 2.828s2.047.781 2.828 0l1.586-1.586v7.242c0 1.104.895 2 2 2 1.104 0 2-.896 2-2v-7.242l1.586 1.586c.391.391.902.586 1.414.586s1.023-.195 1.414-.586c.781-.781.781-2.047 0-2.828l-6.414-6.414z"></path>
  </symbol>
  <symbol version="1.1" id="arrowUp-style" xmlns="http://www.w3.org/2000/svg" xmlns:xlink="http://www.w3.org/1999/xlink" x="0px" y="0px" xml:space="preserve" viewBox="0 0 50.454 50.454">
    <g>
      <path d="M42.359,25.479L27.122,1.25c-1.048-1.667-2.747-1.667-3.795,0L8.095,25.479
		c-1.048,1.667-0.316,2.801,1.635,2.532l5.43-0.885c1.95-0.269,3.531,1.11,3.531,3.079v16.683c0,1.969,1.596,3.566,3.565,3.566
		h5.935c1.97,0,3.566-1.596,3.566-3.566V30.206c0-1.969,1.582-3.348,3.531-3.079l5.436,0.885
		C42.674,28.28,43.407,27.146,42.359,25.479z"></path>
    </g>
    <g></g>
    <g></g>
    <g></g>
    <g></g>
    <g></g>
    <g></g>
    <g></g>
    <g></g>
    <g></g>
    <g></g>
    <g></g>
    <g></g>
    <g></g>
    <g></g>
    <g></g>
  </symbol>
  <symbol version="1.1" id="email" xmlns="http://www.w3.org/2000/svg" xmlns:xlink="http://www.w3.org/1999/xlink" x="0px" y="0px" xml:space="preserve" viewBox="0 0 330.001 330.001">
    <g id="XMLID_348_">
      <path id="XMLID_350_" d="M173.871,177.097c-2.641,1.936-5.756,2.903-8.87,2.903c-3.116,0-6.23-0.967-8.871-2.903L30,84.602
		L0.001,62.603L0,275.001c0.001,8.284,6.716,15,15,15L315.001,290c8.285,0,15-6.716,15-14.999V62.602l-30.001,22L173.871,177.097z"></path>
      <polygon id="XMLID_351_" points="165.001,146.4 310.087,40.001 19.911,40 	"></polygon>
    </g>
    <g></g>
    <g></g>
    <g></g>
    <g></g>
    <g></g>
    <g></g>
    <g></g>
    <g></g>
    <g></g>
    <g></g>
    <g></g>
    <g></g>
    <g></g>
    <g></g>
    <g></g>
  </symbol>
  <symbol xmlns="http://www.w3.org/2000/svg" viewBox="0 0 32 32" id="github">
    <path d="M16 0.396c-8.839 0-16 7.167-16 16 0 7.073 4.584 13.068 10.937 15.183 0.803 0.151 1.093-0.344 1.093-0.772 0-0.38-0.009-1.385-0.015-2.719-4.453 0.964-5.391-2.151-5.391-2.151-0.729-1.844-1.781-2.339-1.781-2.339-1.448-0.989 0.115-0.968 0.115-0.968 1.604 0.109 2.448 1.645 2.448 1.645 1.427 2.448 3.744 1.74 4.661 1.328 0.14-1.031 0.557-1.74 1.011-2.135-3.552-0.401-7.287-1.776-7.287-7.907 0-1.751 0.62-3.177 1.645-4.297-0.177-0.401-0.719-2.031 0.141-4.235 0 0 1.339-0.427 4.4 1.641 1.281-0.355 2.641-0.532 4-0.541 1.36 0.009 2.719 0.187 4 0.541 3.043-2.068 4.381-1.641 4.381-1.641 0.859 2.204 0.317 3.833 0.161 4.235 1.015 1.12 1.635 2.547 1.635 4.297 0 6.145-3.74 7.5-7.296 7.891 0.556 0.479 1.077 1.464 1.077 2.959 0 2.14-0.020 3.864-0.020 4.385 0 0.416 0.28 0.916 1.104 0.755 6.4-2.093 10.979-8.093 10.979-15.156 0-8.833-7.161-16-16-16z"></path>
  </symbol>
  <symbol version="1.1" id="linkedin" xmlns="http://www.w3.org/2000/svg" xmlns:xlink="http://www.w3.org/1999/xlink" x="0px" y="0px" xml:space="preserve" viewBox="0 0 310 310">
    <g id="XMLID_801_">
      <path id="XMLID_802_" d="M72.16,99.73H9.927c-2.762,0-5,2.239-5,5v199.928c0,2.762,2.238,5,5,5H72.16c2.762,0,5-2.238,5-5V104.73
		C77.16,101.969,74.922,99.73,72.16,99.73z"></path>
      <path id="XMLID_803_" d="M41.066,0.341C18.422,0.341,0,18.743,0,41.362C0,63.991,18.422,82.4,41.066,82.4
		c22.626,0,41.033-18.41,41.033-41.038C82.1,18.743,63.692,0.341,41.066,0.341z"></path>
      <path id="XMLID_804_" d="M230.454,94.761c-24.995,0-43.472,10.745-54.679,22.954V104.73c0-2.761-2.238-5-5-5h-59.599
		c-2.762,0-5,2.239-5,5v199.928c0,2.762,2.238,5,5,5h62.097c2.762,0,5-2.238,5-5v-98.918c0-33.333,9.054-46.319,32.29-46.319
		c25.306,0,27.317,20.818,27.317,48.034v97.204c0,2.762,2.238,5,5,5H305c2.762,0,5-2.238,5-5V194.995
		C310,145.43,300.549,94.761,230.454,94.761z"></path>
    </g>
    <g></g>
    <g></g>
    <g></g>
    <g></g>
    <g></g>
    <g></g>
    <g></g>
    <g></g>
    <g></g>
    <g></g>
    <g></g>
    <g></g>
    <g></g>
    <g></g>
    <g></g>
  </symbol>
  <symbol version="1.1" id="location" xmlns="http://www.w3.org/2000/svg" xmlns:xlink="http://www.w3.org/1999/xlink" x="0px" y="0px" xml:space="preserve" viewBox="0 0 395.71 395.71">
    <g>
      <path d="M197.849,0C122.131,0,60.531,61.609,60.531,137.329c0,72.887,124.591,243.177,129.896,250.388l4.951,6.738
		c0.579,0.792,1.501,1.255,2.471,1.255c0.985,0,1.901-0.463,2.486-1.255l4.948-6.738c5.308-7.211,129.896-177.501,129.896-250.388
		C335.179,61.609,273.569,0,197.849,0z M197.849,88.138c27.13,0,49.191,22.062,49.191,49.191c0,27.115-22.062,49.191-49.191,49.191
		c-27.114,0-49.191-22.076-49.191-49.191C148.658,110.2,170.734,88.138,197.849,88.138z"></path>
    </g>
    <g></g>
    <g></g>
    <g></g>
    <g></g>
    <g></g>
    <g></g>
    <g></g>
    <g></g>
    <g></g>
    <g></g>
    <g></g>
    <g></g>
    <g></g>
    <g></g>
    <g></g>
  </symbol>
  <symbol xmlns="http://www.w3.org/2000/svg" viewBox="0 0 204 53" id="logo"><text transform="translate(0 37)" fill="#fff" font-size="50" font-family="RoadTest">
      <tspan x="0" y="0">AtomDev</tspan>
    </text></symbol>
  <symbol version="1.1" id="moon" xmlns="http://www.w3.org/2000/svg" xmlns:xlink="http://www.w3.org/1999/xlink" x="0px" y="0px" xml:space="preserve" viewBox="0 0 455 455">
    <g>
      <polygon points="320.18,162.705 280.63,171.052 307.72,201.052 303.437,241.245 340.34,224.751 377.243,241.245 372.96,201.052 
		400.05,171.052 360.5,162.705 340.34,127.67 	"></polygon>
      <polygon points="440,325.677 414.091,320.208 400.883,297.253 387.675,320.208 361.766,325.677 379.513,345.33 376.708,371.661 
		400.884,360.855 425.063,371.661 422.254,345.329 	"></polygon>
      <path d="M218,227.5c0-89.167,51.306-166.338,126-203.64C313.443,8.6,278.978,0,242.5,0C116.855,0,15,101.855,15,227.5
		S116.855,455,242.5,455c36.478,0,70.943-8.6,101.5-23.86C269.306,393.838,218,316.667,218,227.5z"></path>
    </g>
    <g></g>
    <g></g>
    <g></g>
    <g></g>
    <g></g>
    <g></g>
    <g></g>
    <g></g>
    <g></g>
    <g></g>
    <g></g>
    <g></g>
    <g></g>
    <g></g>
    <g></g>
  </symbol>
  <symbol xmlns="http://www.w3.org/2000/svg" viewBox="0 0 53.943 53.935" id="phone">
    <g transform="translate(0 -0.004)">
      <path d="M53.364,40.908c-2.008-3.8-8.981-7.912-9.288-8.092a5.54,5.54,0,0,0-2.706-.78,3.367,3.367,0,0,0-3.011,1.68,33.351,33.351,0,0,1-2.592,2.867c-2.376,1.612-4.236,1.429-6.294-.629L17.987,24.467c-2.045-2.045-2.233-3.928-.632-6.291a33.681,33.681,0,0,1,2.87-2.6,3.325,3.325,0,0,0,1.546-1.995,4.944,4.944,0,0,0-.652-3.731c-.173-.3-4.291-7.27-8.085-9.277a4.933,4.933,0,0,0-5.8.872L4.7,3.986C.686,8-.767,12.548.379,17.506c.956,4.132,3.742,8.529,8.282,13.068l14.7,14.7c5.746,5.746,11.224,8.66,16.282,8.66h0c3.721,0,7.188-1.581,10.306-4.7L52.491,46.7A4.908,4.908,0,0,0,53.364,40.908Z"></path>
    </g>
  </symbol>
  <symbol version="1.1" id="rightArrow" xmlns="http://www.w3.org/2000/svg" xmlns:xlink="http://www.w3.org/1999/xlink" x="0px" y="0px" xml:space="preserve" viewBox="0 0 330 330">
    <path id="XMLID_27_" d="M15,180h263.787l-49.394,49.394c-5.858,5.857-5.858,15.355,0,21.213C232.322,253.535,236.161,255,240,255
	s7.678-1.465,10.606-4.394l75-75c5.858-5.857,5.858-15.355,0-21.213l-75-75c-5.857-5.857-15.355-5.857-21.213,0
	c-5.858,5.857-5.858,15.355,0,21.213L278.787,150H15c-8.284,0-15,6.716-15,15S6.716,180,15,180z"></path>
    <g></g>
    <g></g>
    <g></g>
    <g></g>
    <g></g>
    <g></g>
    <g></g>
    <g></g>
    <g></g>
    <g></g>
    <g></g>
    <g></g>
    <g></g>
    <g></g>
    <g></g>
  </symbol>
  <symbol version="1.1" id="sun" xmlns="http://www.w3.org/2000/svg" xmlns:xlink="http://www.w3.org/1999/xlink" x="0px" y="0px" xml:space="preserve" viewBox="0 0 45.16 45.16">
    <g>
      <g>
        <path d="M22.58,11.269c-6.237,0-11.311,5.075-11.311,11.312s5.074,11.312,11.311,11.312c6.236,0,11.311-5.074,11.311-11.312
			S28.816,11.269,22.58,11.269z"></path>
        <g>
          <g>
            <path d="M22.58,7.944c-1.219,0-2.207-0.988-2.207-2.206V2.207C20.373,0.988,21.361,0,22.58,0c1.219,0,2.207,0.988,2.207,2.207
					v3.531C24.787,6.956,23.798,7.944,22.58,7.944z"></path>
          </g>
          <g>
            <path d="M22.58,37.215c-1.219,0-2.207,0.988-2.207,2.207v3.53c0,1.22,0.988,2.208,2.207,2.208c1.219,0,2.207-0.988,2.207-2.208
					v-3.53C24.787,38.203,23.798,37.215,22.58,37.215z"></path>
          </g>
          <g>
            <path d="M32.928,12.231c-0.861-0.862-0.861-2.259,0-3.121l2.497-2.497c0.861-0.861,2.259-0.861,3.121,0
					c0.862,0.862,0.862,2.26,0,3.121l-2.497,2.497C35.188,13.093,33.791,13.093,32.928,12.231z"></path>
          </g>
          <g>
            <path d="M12.231,32.93c-0.862-0.863-2.259-0.863-3.121,0l-2.497,2.496c-0.861,0.861-0.862,2.26,0,3.121
					c0.862,0.861,2.26,0.861,3.121,0l2.497-2.498C13.093,35.188,13.093,33.79,12.231,32.93z"></path>
          </g>
          <g>
            <path d="M37.215,22.58c0-1.219,0.988-2.207,2.207-2.207h3.531c1.219,0,2.207,0.988,2.207,2.207c0,1.219-0.988,2.206-2.207,2.206
					h-3.531C38.203,24.786,37.215,23.799,37.215,22.58z"></path>
          </g>
          <g>
            <path d="M7.944,22.58c0-1.219-0.988-2.207-2.207-2.207h-3.53C0.988,20.373,0,21.361,0,22.58c0,1.219,0.988,2.206,2.207,2.206
					h3.531C6.956,24.786,7.944,23.799,7.944,22.58z"></path>
          </g>
          <g>
            <path d="M32.928,32.93c0.862-0.861,2.26-0.861,3.121,0l2.497,2.497c0.862,0.86,0.862,2.259,0,3.12s-2.259,0.861-3.121,0
					l-2.497-2.497C32.066,35.188,32.066,33.791,32.928,32.93z"></path>
          </g>
          <g>
            <path d="M12.231,12.231c0.862-0.862,0.862-2.259,0-3.121L9.734,6.614c-0.862-0.862-2.259-0.862-3.121,0
					c-0.862,0.861-0.862,2.259,0,3.12l2.497,2.497C9.972,13.094,11.369,13.094,12.231,12.231z"></path>
          </g>
        </g>
      </g>
    </g>
    <g></g>
    <g></g>
    <g></g>
    <g></g>
    <g></g>
    <g></g>
    <g></g>
    <g></g>
    <g></g>
    <g></g>
    <g></g>
    <g></g>
    <g></g>
    <g></g>
    <g></g>
  </symbol>
  <symbol version="1.1" id="uiux" xmlns="http://www.w3.org/2000/svg" xmlns:xlink="http://www.w3.org/1999/xlink" x="0px" y="0px" xml:space="preserve" viewBox="0 0 399.997 399.997">
    <g>
      <g>
        <g>
          <path d="M366.684,24.971H33.316C14.945,24.971,0,39.917,0,58.288V275.56c0,18.371,14.945,33.317,33.316,33.317h107.412
				l-20.387,44.955c-2.105,4.643-1.709,10.037,1.053,14.321c2.762,4.285,7.51,6.873,12.607,6.873h131.996c0.006,0,0.014,0,0.02,0
				c8.285,0,15-6.715,15-15c0-2.493-0.605-4.848-1.686-6.916l-20.062-44.233h107.412c18.371,0,33.316-14.946,33.316-33.317V58.288
				C400,39.917,385.055,24.971,366.684,24.971z M370,275.561c0,1.829-1.488,3.316-3.316,3.316H33.316
				c-1.828,0-3.316-1.487-3.316-3.316V58.288c0-1.829,1.488-3.317,3.316-3.317h333.367c1.828,0,3.316,1.488,3.316,3.317L370,275.561
				L370,275.561z"></path>
          <path d="M246.198,96.434c-1.057-1.056-2.921-0.9-4.166,0.344l-16.273,16.271c-1.247,1.247-1.4,3.116-0.348,4.171l23.103,23.103
				c0.525,0.526,1.261,0.751,2.013,0.688c0.756-0.063,1.53-0.413,2.157-1.038l16.271-16.272c1.244-1.245,1.4-3.111,0.343-4.166
				L246.198,96.434z"></path>
          <path d="M146.336,197.582c-0.684-0.684-1.748-0.882-2.791-0.523c-1.042,0.359-1.902,1.226-2.257,2.271l-11.118,32.934
				c-0.353,1.037-0.148,2.089,0.532,2.768c0.512,0.517,1.24,0.759,2.011,0.693c0.248-0.021,0.503-0.073,0.756-0.16l32.934-11.12
				c1.044-0.354,1.912-1.215,2.27-2.256c0.362-1.041,0.162-2.107-0.521-2.792L146.336,197.582z"></path>
          <path d="M229.504,182.228c1.451-0.662,2.51-1.965,2.859-3.519c0.35-1.555-0.047-3.185-1.071-4.405
				c-1.92-2.283-3.929-4.604-5.997-6.941l18.078-18.077c0.596-0.597,0.972-1.375,1.033-2.157c0.065-0.779-0.185-1.505-0.689-2.01
				l-23.104-23.101c-1.056-1.058-2.92-0.903-4.166,0.344l-17.63,17.633c-11.824-11.209-23.699-21.209-34.165-28.732
				c-7.369-5.296-20.85-14.199-28.355-14.313c-1.37-0.024-2.695,0.512-3.668,1.479c-0.976,0.966-1.519,2.285-1.508,3.657
				c0.039,5.114,4.528,14.341,12.639,25.977c7.72,11.075,18.326,23.802,30.426,36.563l-23,23.002
				c-1.248,1.247-1.403,3.111-0.346,4.166l23.103,23.101c0.525,0.531,1.254,0.755,2.011,0.691c0.752-0.063,1.533-0.414,2.155-1.035
				l23.446-23.447c2.047,1.811,4.077,3.571,6.079,5.268c0.929,0.787,2.097,1.209,3.296,1.209c0.271,0,0.543-0.022,0.815-0.065
				c1.471-0.239,2.765-1.109,3.539-2.383c1.368-2.248,3.15-4.479,5.301-6.626C223.281,185.806,226.284,183.693,229.504,182.228z"></path>
          <path d="M242.292,186.495c-5.938,0-11.606,2.531-16.396,7.32c-5.748,5.748-8.257,11.777-7.257,17.438
				c0.993,5.604,5.446,10.627,12.22,13.771c5.827,2.707,11.138,3.546,15.821,4.287c4.932,0.778,9.585,1.516,13.726,4.325
				c0.857,0.585,1.859,0.882,2.864,0.882c0.706,0,1.415-0.146,2.079-0.444c1.613-0.719,2.74-2.225,2.977-3.977
				c1.775-13.241-0.765-25.133-7.152-33.476C256.245,190.186,249.363,186.495,242.292,186.495z"></path>
        </g>
      </g>
    </g>
    <g></g>
    <g></g>
    <g></g>
    <g></g>
    <g></g>
    <g></g>
    <g></g>
    <g></g>
    <g></g>
    <g></g>
    <g></g>
    <g></g>
    <g></g>
    <g></g>
    <g></g>
  </symbol>
  <symbol version="1.1" id="webdev" xmlns="http://www.w3.org/2000/svg" xmlns:xlink="http://www.w3.org/1999/xlink" x="0px" y="0px" xml:space="preserve" viewBox="0 0 419.931 419.931">
    <g>
      <g>
        <g>
          <path d="M282.895,352.367c-2.176-1.324-4.072-3.099-5.579-5.25c-0.696-0.992-1.284-2.041-1.771-3.125H28.282V100.276h335.624
				v159.138c7.165,0.647,13.177,5.353,15.701,11.797c2.235-1.225,4.726-1.982,7.344-2.213c1.771-0.154,3.53-0.044,5.236,0.293
				V39.561c0-12.996-10.571-23.569-23.566-23.569H23.568C10.573,15.992,0,26.565,0,39.561v309.146
				c0,12.996,10.573,23.568,23.568,23.568h257.179c-2.007-4.064-2.483-8.652-1.302-13.066
				C280.126,356.67,281.304,354.354,282.895,352.367z M338.025,55.569c0-4.806,3.896-8.703,8.702-8.703h8.702
				c4.807,0,8.702,3.896,8.702,8.703v9.863c0,4.806-3.896,8.702-8.702,8.702h-8.702c-4.807,0-8.702-3.896-8.702-8.702V55.569z
				 M297.56,55.569c0-4.806,3.896-8.703,8.702-8.703h8.703c4.807,0,8.702,3.896,8.702,8.703v9.863c0,4.806-3.896,8.702-8.702,8.702
				h-8.703c-4.806,0-8.702-3.896-8.702-8.702V55.569z M257.094,55.569c0-4.806,3.897-8.703,8.702-8.703h8.702
				c4.807,0,8.703,3.896,8.703,8.703v9.863c0,4.806-3.896,8.702-8.703,8.702h-8.702c-4.805,0-8.702-3.896-8.702-8.702V55.569z"></path>
          <path d="M419.875,335.77l-2.615-14.83c-0.353-1.997-2.256-3.331-4.255-2.979l-13.188,2.324c-1.583-3.715-3.605-7.195-6.005-10.38
				l8.614-10.268c0.626-0.744,0.931-1.709,0.847-2.68c-0.086-0.971-0.554-1.867-1.3-2.494l-11.534-9.68
				c-0.746-0.626-1.713-0.93-2.683-0.845c-0.971,0.085-1.867,0.552-2.493,1.298l-8.606,10.26c-3.533-1.8-7.312-3.188-11.271-4.104
				v-13.392c0-2.028-1.645-3.674-3.673-3.674h-15.06c-2.027,0-3.673,1.646-3.673,3.674v13.392
				c-3.961,0.915-7.736,2.304-11.271,4.104l-8.608-10.259c-1.304-1.554-3.62-1.756-5.175-0.453l-11.535,9.679
				c-0.746,0.627-1.213,1.523-1.299,2.494c-0.084,0.971,0.22,1.937,0.846,2.683l8.615,10.266c-2.396,3.184-4.422,6.666-6.005,10.38
				l-13.188-2.325c-1.994-0.351-3.901,0.982-4.255,2.979l-2.614,14.83c-0.169,0.959,0.05,1.945,0.607,2.744
				c0.561,0.799,1.41,1.342,2.37,1.511l13.198,2.326c0.215,4.089,0.927,8.045,2.073,11.812l-11.6,6.695
				c-0.844,0.485-1.459,1.289-1.712,2.229c-0.252,0.941-0.119,1.943,0.367,2.787l7.529,13.041c0.485,0.844,1.289,1.459,2.229,1.711
				c0.313,0.084,0.632,0.125,0.951,0.125c0.639,0,1.272-0.166,1.836-0.492l11.609-6.703c2.73,2.925,5.812,5.517,9.18,7.709
				l-4.584,12.593c-0.332,0.916-0.289,1.926,0.123,2.809s1.157,1.566,2.072,1.898l14.148,5.149c0.406,0.148,0.832,0.224,1.257,0.224
				c0.53,0,1.063-0.115,1.554-0.345c0.883-0.411,1.564-1.157,1.897-2.073l4.583-12.593c1.965,0.238,3.965,0.361,5.994,0.361
				s4.029-0.125,5.994-0.361l4.584,12.593c0.332,0.916,1.016,1.662,1.897,2.073c0.49,0.229,1.021,0.345,1.554,0.345
				c0.424,0,0.85-0.074,1.256-0.224l14.15-5.149c0.913-0.332,1.659-1.017,2.07-1.898c0.412-0.883,0.456-1.893,0.123-2.809
				l-4.584-12.591c3.365-2.192,6.447-4.786,9.18-7.709l11.609,6.703c0.563,0.324,1.197,0.492,1.836,0.492
				c0.318,0,0.64-0.043,0.951-0.125c0.941-0.252,1.743-0.869,2.229-1.711l7.529-13.043c0.486-0.842,0.619-1.846,0.367-2.787
				c-0.253-0.938-0.868-1.742-1.712-2.229l-11.598-6.693c1.146-3.768,1.856-7.724,2.071-11.812l13.198-2.327
				c0.96-0.169,1.812-0.712,2.37-1.511C419.825,337.715,420.044,336.729,419.875,335.77z M354.184,359.336
				c-11.155,0-20.2-9.045-20.2-20.201s9.046-20.2,20.2-20.2c11.156,0,20.201,9.044,20.201,20.2S365.34,359.336,354.184,359.336z"></path>
          <g>
            <path d="M164.695,235.373c0-4.752-2.785-9.117-7.096-11.119l-39.455-18.332l39.456-18.334c4.31-2.004,7.095-6.368,7.095-11.118
					v-0.319c0-4.21-2.119-8.075-5.665-10.334c-1.962-1.253-4.247-1.916-6.606-1.916c-1.778,0-3.563,0.391-5.16,1.133l-63.078,29.333
					c-4.309,2.004-7.092,6.368-7.092,11.117v0.877c0,4.743,2.782,9.104,7.093,11.118l63.084,29.336
					c1.631,0.755,3.368,1.138,5.162,1.138c2.338,0,4.616-0.664,6.597-1.924c3.548-2.268,5.666-6.13,5.666-10.335L164.695,235.373
					L164.695,235.373z"></path>
            <path d="M226.932,134.012c-2.301-3.15-6.002-5.03-9.901-5.03h-0.314c-5.354,0-10.048,3.425-11.679,8.516L163.478,266.27
					c-1.183,3.718-0.517,7.813,1.781,10.962c2.301,3.148,6.002,5.029,9.901,5.029h0.315c5.352,0,10.043-3.426,11.672-8.516
					l41.555-128.762C229.896,141.268,229.234,137.167,226.932,134.012z"></path>
            <path d="M308.001,194.366l-63.079-29.333c-1.592-0.74-3.374-1.131-5.152-1.131c-2.358,0-4.644,0.661-6.605,1.912
					c-3.552,2.263-5.671,6.127-5.671,10.337v0.319c0,4.746,2.783,9.111,7.097,11.123l39.454,18.33l-39.455,18.331
					c-4.311,2.002-7.096,6.367-7.096,11.119v0.321c0,4.205,2.119,8.066,5.669,10.336c1.974,1.258,4.254,1.923,6.595,1.923
					c1.792,0,3.527-0.383,5.169-1.141l63.082-29.336c4.307-2.009,7.088-6.371,7.088-11.114v-0.877
					C315.094,200.735,312.311,196.371,308.001,194.366z"></path>
          </g>
        </g>
      </g>
    </g>
    <g></g>
    <g></g>
    <g></g>
    <g></g>
    <g></g>
    <g></g>
    <g></g>
    <g></g>
    <g></g>
    <g></g>
    <g></g>
    <g></g>
    <g></g>
    <g></g>
    <g></g>
  </symbol>
  <symbol xmlns="http://www.w3.org/2000/svg" viewBox="0 0 24 24" id="whatsapp">
    <path fill-rule="evenodd" clip-rule="evenodd" d="M18.403 5.633A8.919 8.919 0 0 0 12.053 3c-4.948 0-8.976 4.027-8.978 8.977 0 1.582.413 3.126 1.198 4.488L3 21.116l4.759-1.249a8.981 8.981 0 0 0 4.29 1.093h.004c4.947 0 8.975-4.027 8.977-8.977a8.926 8.926 0 0 0-2.627-6.35m-6.35 13.812h-.003a7.446 7.446 0 0 1-3.798-1.041l-.272-.162-2.824.741.753-2.753-.177-.282a7.448 7.448 0 0 1-1.141-3.971c.002-4.114 3.349-7.461 7.465-7.461a7.413 7.413 0 0 1 5.275 2.188 7.42 7.42 0 0 1 2.183 5.279c-.002 4.114-3.349 7.462-7.461 7.462m4.093-5.589c-.225-.113-1.327-.655-1.533-.73-.205-.075-.354-.112-.504.112s-.58.729-.711.879-.262.168-.486.056-.947-.349-1.804-1.113c-.667-.595-1.117-1.329-1.248-1.554s-.014-.346.099-.458c.101-.1.224-.262.336-.393.112-.131.149-.224.224-.374s.038-.281-.019-.393c-.056-.113-.505-1.217-.692-1.666-.181-.435-.366-.377-.504-.383a9.65 9.65 0 0 0-.429-.008.826.826 0 0 0-.599.28c-.206.225-.785.767-.785 1.871s.804 2.171.916 2.321c.112.15 1.582 2.415 3.832 3.387.536.231.954.369 1.279.473.537.171 1.026.146 1.413.089.431-.064 1.327-.542 1.514-1.066.187-.524.187-.973.131-1.067-.056-.094-.207-.151-.43-.263"></path>
  </symbol>
</svg>