<svg xmlns="http://www.w3.org/2000/svg" width="53.943" height="53.935" viewBox="0 0 53.943 53.935"><g transform="translate(0 -0.004)"><path d="M53.364,40.908c-2.008-3.8-8.981-7.912-9.288-8.092a5.54,5.54,0,0,0-2.706-.78,3.367,3.367,0,0,0-3.011,1.68,33.351,33.351,0,0,1-2.592,2.867c-2.376,1.612-4.236,1.429-6.294-.629L17.987,24.467c-2.045-2.045-2.233-3.928-.632-6.291a33.681,33.681,0,0,1,2.87-2.6,3.325,3.325,0,0,0,1.546-1.995,4.944,4.944,0,0,0-.652-3.731c-.173-.3-4.291-7.27-8.085-9.277a4.933,4.933,0,0,0-5.8.872L4.7,3.986C.686,8-.767,12.548.379,17.506c.956,4.132,3.742,8.529,8.282,13.068l14.7,14.7c5.746,5.746,11.224,8.66,16.282,8.66h0c3.721,0,7.188-1.581,10.306-4.7L52.491,46.7A4.908,4.908,0,0,0,53.364,40.908Z"/></g></svg>